<svg xmlns="http://www.w3.org/2000/svg" width="900" height="1200" viewBox="0 0 900 1200" role="img" aria-labelledby="title desc">
  <title id="title">The Palmwine Drinkard poster artwork</title>
  <desc id="desc">A local poster-style fallback image for The Palmwine Drinkard.</desc>
  <defs>
    <radialGradient id="sun" cx="70%" cy="18%" r="52%">
      <stop offset="0" stop-color="#f0e8d8"/>
      <stop offset="0.35" stop-color="#e8b44a"/>
      <stop offset="1" stop-color="#8b1a1a"/>
    </radialGradient>
  </defs>
  <rect width="900" height="1200" fill="#110908"/>
  <rect x="55" y="55" width="790" height="1090" fill="url(#sun)"/>
  <path d="M450 225C390 335 372 472 398 632C420 760 430 920 405 1035H495C470 920 480 760 502 632C528 472 510 335 450 225Z" fill="#0e0c0a" opacity="0.72"/>
  <path d="M450 255C370 315 270 335 170 310C270 405 380 380 450 300C520 380 630 405 730 310C630 335 530 315 450 255Z" fill="#0e0c0a" opacity="0.72"/>
  <text x="450" y="515" fill="#f0e8d8" font-family="Georgia, serif" font-size="82" text-anchor="middle">The Palmwine</text>
  <text x="450" y="615" fill="#0e0c0a" font-family="Georgia, serif" font-size="92" font-style="italic" text-anchor="middle">Drinkard</text>
  <text x="450" y="1018" fill="#f0e8d8" font-family="Arial, sans-serif" font-size="28" letter-spacing="9" text-anchor="middle">THEATRE PRODUCTION</text>
</svg>
